<?xml version="1.0" ?><!DOCTYPE svg  PUBLIC '-//W3C//DTD SVG 1.1//EN'  'http://www.w3.org/Graphics/SVG/1.1/DTD/svg11.dtd'><svg enable-background="new 0 0 144.083 144" height="144px" id="Dribbble" version="1.1" viewBox="0 0 144.083 144" width="144.083px" xml:space="preserve" xmlns="http://www.w3.org/2000/svg" xmlns:xlink="http://www.w3.org/1999/xlink"><path d="M72.041,11.166c-33.543,0-60.833,27.29-60.833,60.834s27.29,60.834,60.833,60.834c33.544,0,60.835-27.29,60.835-60.834  S105.584,11.166,72.041,11.166z M72.041,126.834c-30.235,0-54.833-24.599-54.833-54.834s24.598-54.834,54.833-54.834  c30.235,0,54.835,24.599,54.835,54.834S102.276,126.834,72.041,126.834z"/><path d="M71.792,38.001c-18.748,0-34,15.252-34,33.999c0,18.748,15.252,34,34,34c18.748,0,34-15.252,34-34  C105.792,53.253,90.54,38.001,71.792,38.001z M93.987,54.96c3.506,4.557,5.641,10.217,5.787,16.362  c-7.096-1.102-13.393-0.943-18.914,0.038c-0.922-2.161-1.881-4.233-2.854-6.202C83.702,62.741,89.262,59.45,93.987,54.96z   M89.836,50.615c-4.258,4.038-9.369,7.001-14.643,9.175c-4.041-7.297-7.887-12.616-9.751-15.055  c2.042-0.476,4.165-0.734,6.349-0.734C78.663,44.001,84.959,46.493,89.836,50.615z M60.545,46.366l-0.881,0.726  c0.093,0.113,4.691,5.782,9.755,14.769c-10.441,3.228-20.521,3.798-24.913,3.875C46.502,57.046,52.547,49.89,60.545,46.366z   M43.792,72c0-0.083,0.005-0.165,0.006-0.248c4.443-0.007,16.25-0.454,28.51-4.464c0.882,1.759,1.753,3.605,2.597,5.527  c-13.414,4.155-21.304,12.963-24.482,17.249C46.291,85.185,43.792,78.88,43.792,72z M54.78,94.219  c2.225-3.282,9.248-12.109,22.371-15.906c2.275,6.059,4.125,12.681,5.006,19.574l0.434-0.056C79.266,99.227,75.618,100,71.792,100  C65.396,100,59.499,97.84,54.78,94.219z M87.793,94.956c-0.98-6.317-2.66-12.35-4.689-17.922c4.738-0.685,10.117-0.7,16.174,0.286  C97.874,84.589,93.651,90.861,87.793,94.956z"/></svg>