<?xml version="1.0" ?><svg enable-background="new 0 0 512 512" id="Layer_1" version="1.1" viewBox="0 0 512 512" xml:space="preserve" xmlns="http://www.w3.org/2000/svg" xmlns:xlink="http://www.w3.org/1999/xlink"><g><g><linearGradient gradientUnits="userSpaceOnUse" id="SVGID_1_" x1="-0.0000027" x2="512" y1="256" y2="256"><stop offset="0" style="stop-color:#A364AB"/><stop offset="1" style="stop-color:#8C3D96"/></linearGradient><circle cx="256" cy="256" fill="url(#SVGID_1_)" r="256"/><linearGradient gradientUnits="userSpaceOnUse" id="SVGID_2_" x1="42.6666641" x2="469.3333435" y1="256.0005188" y2="256.0005188"><stop offset="0" style="stop-color:#8C3D96"/><stop offset="1" style="stop-color:#A364AB"/></linearGradient><path d="M256,469.3338623c-117.6314697,0-213.3333435-95.7018738-213.3333435-213.3333435    S138.3685303,42.6671982,256,42.6671982c117.6357422,0,213.3333435,95.7018661,213.3333435,213.333313    S373.6357422,469.3338623,256,469.3338623z" fill="url(#SVGID_2_)"/></g><g><rect height="63.3333359" opacity="0.3" width="63.3334923" x="144" y="144"/><rect height="63.3333359" opacity="0.3" width="63.3331757" x="232.3334961" y="144"/><rect height="63.3333359" opacity="0.3" width="63.3333359" x="320.6666565" y="144"/><rect height="63.3333359" opacity="0.3" width="63.3334923" x="144" y="232.3333282"/><rect height="63.3333359" opacity="0.3" width="63.3331757" x="232.3334961" y="232.3333282"/><rect height="63.3333359" opacity="0.3" width="63.3333359" x="320.6666565" y="232.3333282"/><rect height="63.3333359" opacity="0.3" width="63.3334923" x="144" y="320.6666565"/><rect height="63.3333359" opacity="0.3" width="63.3331757" x="232.3334961" y="320.6666565"/><rect height="63.3333359" opacity="0.3" width="63.3333359" x="320.6666565" y="320.6666565"/></g><g><rect fill="#FFFFFF" height="63.3333359" width="63.3334923" x="136" y="136"/><rect fill="#FFFFFF" height="63.3333359" width="63.3330154" x="224.3334961" y="136"/><rect fill="#FFFFFF" height="63.3333359" width="63.3333359" x="312.6666565" y="136"/><rect fill="#FFFFFF" height="63.3333359" width="63.3334923" x="136" y="224.3333282"/><rect fill="#FFFFFF" height="63.3333359" width="63.3330154" x="224.3334961" y="224.3333282"/><rect fill="#FFFFFF" height="63.3333359" width="63.3333359" x="312.6666565" y="224.3333282"/><rect fill="#FFFFFF" height="63.3333359" width="63.3334923" x="136" y="312.6666565"/><rect fill="#FFFFFF" height="63.3333359" width="63.3330154" x="224.3334961" y="312.6666565"/><rect fill="#FFFFFF" height="63.3333359" width="63.3333359" x="312.6666565" y="312.6666565"/></g></g></svg>